<svg id="Airpods full battery " width="24" height="24" viewBox="0 0 24 24" fill="none" xmlns="http://www.w3.org/2000/svg">
    <path opacity="0.4" d="M3 10.7668C3 11.1686 3.119 11.5666 3.362 11.8857C4.072 12.8207 5.22901 13.423 6.48801 13.423H7.49399V18.9388C7.49399 19.7094 8.119 20.334 8.888 20.334C9.659 20.334 10.284 19.7094 10.284 18.9388V9.95529C10.284 7.83522 8.22699 5.99825 6.10699 6.09554C4.99099 6.15198 4.00001 6.70949 3.36301 7.55111C3.12101 7.87219 3 8.27014 3 8.67295V10.7668Z" stroke="#FFFFFF" stroke-width="1.5" stroke-linecap="round" stroke-linejoin="round"></path>
    <path opacity="0.4" d="M5.55371 9.16748V10.3885" stroke="#FFFFFF" stroke-width="1.5" stroke-linecap="round" stroke-linejoin="round"></path>
    <path opacity="0.4" d="M13.5215 12.6974V6.86348C13.5215 4.74337 15.5785 2.9064 17.6985 3.0037C18.8135 3.06013 19.8045 3.61764 20.4425 4.45926C20.6845 4.78034 20.8055 5.17829 20.8055 5.5811V7.67494C20.8055 8.07678 20.6855 8.47472 20.4435 8.79386C19.7335 9.72889 18.5765 10.3312 17.3175 10.3312H16.3115V11.8938" stroke="#FFFFFF" stroke-width="1.5" stroke-linecap="round" stroke-linejoin="round"></path>
    <path opacity="0.4" d="M18.25 6.07471V7.2958" stroke="#FFFFFF" stroke-width="1.5" stroke-linecap="round" stroke-linejoin="round"></path>
    <path d="M20.9997 16.423V18.2513M14.7457 16.7195V17.9561M16.7187 16.7195V17.9561M14.4767 19.8752H17.5227C18.5787 19.8752 19.2387 19.2846 19.2387 18.1978V16.5077C19.2387 15.4044 18.5787 14.8002 17.5227 14.8002H14.4797C13.4207 14.8002 12.7637 15.3946 12.7637 16.4805V18.1978C12.7607 19.2846 13.4177 19.8752 14.4767 19.8752Z" stroke="#FFFFFF" stroke-width="1.5" stroke-linecap="round" stroke-linejoin="round"></path>
</svg>
